<mxfile host="app.diagrams.net" modified="2020-10-23T05:25:57.595Z" agent="5.0 (Windows NT 10.0; Win64; x64) AppleWebKit/537.36 (KHTML, like Gecko) Chrome/86.0.4240.111 Safari/537.36 Edg/86.0.622.51" etag="hBi9LY6ca-ObqBNDQkRS" version="13.6.6" type="github">
  <diagram id="JWHYfN0wVpbmjEpsRox_" name="Page-1">
    <mxGraphModel dx="868" dy="482" grid="1" gridSize="10" guides="1" tooltips="1" connect="1" arrows="1" fold="1" page="1" pageScale="1" pageWidth="827" pageHeight="1169" math="0" shadow="0">
      <root>
        <mxCell id="0" />
        <mxCell id="1" parent="0" />
        <mxCell id="cgUmpKjDErW854sxJ7pT-1" value="" style="whiteSpace=wrap;html=1;aspect=fixed;" vertex="1" parent="1">
          <mxGeometry x="100" y="155" width="30" height="30" as="geometry" />
        </mxCell>
        <mxCell id="cgUmpKjDErW854sxJ7pT-2" value="" style="whiteSpace=wrap;html=1;aspect=fixed;" vertex="1" parent="1">
          <mxGeometry x="170" y="155" width="30" height="30" as="geometry" />
        </mxCell>
        <mxCell id="cgUmpKjDErW854sxJ7pT-3" value="" style="whiteSpace=wrap;html=1;aspect=fixed;" vertex="1" parent="1">
          <mxGeometry x="210" y="155" width="30" height="30" as="geometry" />
        </mxCell>
        <mxCell id="cgUmpKjDErW854sxJ7pT-4" value="" style="whiteSpace=wrap;html=1;aspect=fixed;" vertex="1" parent="1">
          <mxGeometry x="260" y="155" width="30" height="30" as="geometry" />
        </mxCell>
        <mxCell id="cgUmpKjDErW854sxJ7pT-5" value="" style="whiteSpace=wrap;html=1;aspect=fixed;" vertex="1" parent="1">
          <mxGeometry x="300" y="155" width="30" height="30" as="geometry" />
        </mxCell>
        <mxCell id="cgUmpKjDErW854sxJ7pT-6" value="" style="whiteSpace=wrap;html=1;aspect=fixed;" vertex="1" parent="1">
          <mxGeometry x="350" y="155" width="30" height="30" as="geometry" />
        </mxCell>
        <mxCell id="cgUmpKjDErW854sxJ7pT-7" value="" style="whiteSpace=wrap;html=1;aspect=fixed;" vertex="1" parent="1">
          <mxGeometry x="400" y="155" width="30" height="30" as="geometry" />
        </mxCell>
        <mxCell id="cgUmpKjDErW854sxJ7pT-8" value="" style="whiteSpace=wrap;html=1;aspect=fixed;" vertex="1" parent="1">
          <mxGeometry x="454" y="155" width="30" height="30" as="geometry" />
        </mxCell>
        <mxCell id="cgUmpKjDErW854sxJ7pT-9" value="" style="whiteSpace=wrap;html=1;aspect=fixed;" vertex="1" parent="1">
          <mxGeometry x="510" y="155" width="30" height="30" as="geometry" />
        </mxCell>
        <mxCell id="cgUmpKjDErW854sxJ7pT-10" value="" style="whiteSpace=wrap;html=1;aspect=fixed;" vertex="1" parent="1">
          <mxGeometry x="550" y="155" width="30" height="30" as="geometry" />
        </mxCell>
        <mxCell id="cgUmpKjDErW854sxJ7pT-11" value="" style="whiteSpace=wrap;html=1;aspect=fixed;" vertex="1" parent="1">
          <mxGeometry x="590" y="155" width="30" height="30" as="geometry" />
        </mxCell>
        <mxCell id="cgUmpKjDErW854sxJ7pT-12" value="" style="whiteSpace=wrap;html=1;aspect=fixed;" vertex="1" parent="1">
          <mxGeometry x="630" y="155" width="30" height="30" as="geometry" />
        </mxCell>
        <mxCell id="cgUmpKjDErW854sxJ7pT-13" value="" style="shape=curlyBracket;whiteSpace=wrap;html=1;rounded=1;rotation=90;" vertex="1" parent="1">
          <mxGeometry x="360" y="-153" width="40" height="560" as="geometry" />
        </mxCell>
      </root>
    </mxGraphModel>
  </diagram>
</mxfile>
